<svg width="27" height="26" viewBox="0 0 27 26" fill="none" xmlns="http://www.w3.org/2000/svg">
<path d="M24.6375 25.025C24.9987 25.025 25.3362 24.8904 25.592 24.6441C25.8477 24.4004 25.9875 24.0728 25.9875 23.725C25.9875 23.3797 25.8477 23.0521 25.592 22.8058L13.2864 11.507L11.947 12.7994L23.6909 24.6492C23.9388 24.8904 24.2789 25.025 24.6375 25.025Z" fill="#9B59B6"/>
<path d="M13.2917 11.9641L12.4189 12.8045L23.9229 24.4156C24.1128 24.5984 24.3686 24.7 24.6375 24.7C24.9091 24.7 25.1622 24.5984 25.3547 24.4156C25.7476 24.0348 25.7476 23.4178 25.3652 23.0471L13.2917 11.9641ZM13.2785 11.0551L25.8319 22.5774C26.4885 23.2121 26.4885 24.2404 25.8319 24.8752C25.5023 25.1926 25.0699 25.35 24.6375 25.35C24.2051 25.35 23.7753 25.1926 23.4457 24.8752L11.475 12.7943L13.2785 11.0551Z" fill="#9B59B6"/>
<path d="M9.45001 17.225C14.1038 17.225 17.8875 13.5815 17.8875 9.10001C17.8875 4.61856 14.1038 0.975006 9.45001 0.975006C4.79621 0.975006 1.01252 4.61856 1.01252 9.10001C1.01252 13.5815 4.79621 17.225 9.45001 17.225Z" fill="white"/>
<path d="M9.44998 1.29999C4.98338 1.29999 1.34998 4.79882 1.34998 9.09999C1.34998 13.4012 4.98338 16.9 9.44998 16.9C13.9166 16.9 17.55 13.4012 17.55 9.09999C17.55 4.79882 13.9166 1.29999 9.44998 1.29999ZM9.44998 0.649994C14.2963 0.649994 18.225 4.4332 18.225 9.09999C18.225 13.7668 14.2963 17.55 9.44998 17.55C4.60369 17.55 0.674978 13.7668 0.674978 9.09999C0.674978 4.4332 4.60369 0.649994 9.44998 0.649994Z" fill="#9B59B6"/>
</svg>
