<svg width="71" height="71" viewBox="0 0 71 71" fill="none" xmlns="http://www.w3.org/2000/svg">
<path d="M35.5932 54.0369C47.3503 54.0369 56.8813 44.9204 56.8813 33.6747C56.8813 22.429 47.3503 13.3125 35.5932 13.3125C23.836 13.3125 14.305 22.429 14.305 33.6747C14.305 44.9204 23.836 54.0369 35.5932 54.0369Z" fill="#E8EAF6"/>
<path d="M57.9552 47.9324C57.9552 56.1107 52.9631 62.4341 46.8526 62.4341C40.7422 62.4341 34.8048 55.9051 34.8048 47.7253C34.8048 39.5455 40.7806 33.1245 46.8911 33.1245C53.0015 33.1245 57.9552 39.7526 57.9552 47.9324Z" fill="#9E9E9E"/>
<path d="M13.0448 47.9324C13.0448 56.1107 18.037 62.4341 24.1474 62.4341C30.2579 62.4341 36.1952 55.9051 36.1952 47.7253C36.1952 39.5455 30.2194 33.1245 24.109 33.1245C17.9985 33.1245 13.0448 39.7526 13.0448 47.9324Z" fill="#9E9E9E"/>
<path d="M35.5932 20.7172V60.5157L45.5066 56.0101C46.4858 55.5649 47.2224 54.7173 47.5256 53.6864L51.444 40.3857V20.7172H35.5932Z" fill="#FFE0B2"/>
<path d="M35.5932 20.7172V60.5157L25.6798 56.0101C24.7006 55.5649 23.964 54.7173 23.6607 53.6864L19.7424 40.3857V20.7172H35.5932Z" fill="#FFE0B2"/>
<path d="M30.0404 45.0214V46.5952C30.0404 46.7624 30.0212 46.9103 29.9842 47.0759C29.7801 48.3539 28.6707 49.3154 27.3365 49.3524H27.2625C26.023 49.3524 24.9491 48.5374 24.6148 47.3156L24.393 46.5006L24.2258 45.9089C23.8368 44.5392 24.5586 43.1133 25.8736 42.5956L26.2626 42.4476C28.0776 41.7273 30.0404 43.0778 30.0404 45.0214Z" fill="#5E35B1"/>
<path d="M35.5932 51.2605V56.5042H35.1612C33.3552 56.5042 31.8908 55.0398 31.8908 53.2337V51.2605H35.5932Z" fill="#FF9E80"/>
<path d="M46.9591 45.9104L46.792 46.502L46.5701 47.3171C46.2373 48.5389 45.1634 49.3539 43.9224 49.3539H43.8484C42.5157 49.3169 41.4049 48.354 41.2007 47.0774C41.1638 46.9103 41.1445 46.7624 41.1445 46.5967V45.0229C41.1445 43.0793 43.1074 41.7273 44.9208 42.4491L45.3099 42.597C46.6263 43.1148 47.3482 44.5407 46.9591 45.9104Z" fill="#5E35B1"/>
<path d="M29.9842 47.076C29.7801 48.354 28.6707 49.3154 27.3365 49.3524H27.2625C26.023 49.3524 24.9491 48.5374 24.6148 47.3156L24.3929 46.5006C24.6888 45.8897 25.208 45.3897 25.8736 45.1309L26.2626 44.9637C27.9296 44.3188 29.7061 45.3734 29.9842 47.076Z" fill="#536DFE"/>
<path d="M46.7919 46.502L46.5701 47.3171C46.2372 48.5389 45.1634 49.3539 43.9224 49.3539H43.8484C42.5157 49.3169 41.4048 48.354 41.2007 47.0774C41.4788 45.3749 43.2552 44.3188 44.9208 44.9667L45.3098 45.1338C45.9769 45.3927 46.4961 45.8911 46.7919 46.502Z" fill="#536DFE"/>
<path d="M42.072 46.6322C42.5833 46.6322 42.9979 46.2177 42.9979 45.7063C42.9979 45.1949 42.5833 44.7803 42.072 44.7803C41.5606 44.7803 41.146 45.1949 41.146 45.7063C41.146 46.2177 41.5606 46.6322 42.072 46.6322Z" fill="white"/>
<path d="M35.5932 51.2605V56.5042H36.0251C37.8312 56.5042 39.2956 55.0398 39.2956 53.2337V51.2605H35.5932Z" fill="#FF9E80"/>
<path d="M39.2955 51.2605H31.8908V53.111H39.2955V51.2605Z" fill="#FF6E40"/>
<path d="M25.4121 46.6322C25.9235 46.6322 26.3381 46.2177 26.3381 45.7063C26.3381 45.1949 25.9235 44.7803 25.4121 44.7803C24.9007 44.7803 24.4861 45.1949 24.4861 45.7063C24.4861 46.2177 24.9007 46.6322 25.4121 46.6322Z" fill="white"/>
<path d="M50.1807 25.2834H28.9769C29.9383 27.8512 31.524 30.5537 33.6821 33.0756C39.5411 39.9301 47.3555 42.8692 51.1333 39.6387C54.2129 37.0073 53.6597 31.0921 50.1807 25.2834Z" fill="#FFD180"/>
<path d="M57.2348 40.9331C61.0132 37.7029 59.3258 29.5277 53.4659 22.6731C47.6059 15.8185 39.7925 12.8803 36.0141 16.1105C32.2356 19.3407 33.923 27.516 39.783 34.3705C45.6429 41.2251 53.4564 44.1633 57.2348 40.9331Z" fill="#E8EAF6"/>
<path d="M34.472 31.3731C34.1732 29.2121 34.1466 27.0998 34.3403 25.0719H23.6755C23.1534 26.9622 22.9774 28.9591 23.2599 30.9974C24.3574 38.9317 31.6764 44.5806 40.1002 44.409C37.2454 41.035 35.1835 36.5147 34.472 31.3731Z" fill="#FFD180"/>
<path d="M18.5887 21.7994C16.4552 25.1186 16.7647 29.1199 19.2799 30.7365C21.7951 32.3532 25.5635 30.973 27.6969 27.6537C29.8304 24.3345 29.5209 20.3332 27.0057 18.7166C24.4905 17.0999 20.7221 18.4801 18.5887 21.7994Z" fill="#E8EAF6"/>
<path d="M38.1462 22.7866C35.3358 22.1697 33.1097 19.8371 32.3124 16.8211C28.7343 19.7069 26.4534 24.0601 26.4534 28.931C26.4534 36.9407 32.6201 43.5393 40.5898 44.5244C38.3356 40.791 36.9807 36.0295 36.9807 30.8406C36.9807 27.9888 37.4037 25.2775 38.1462 22.7866Z" fill="#E8EAF6"/>
<path d="M36.9791 4.4375H34.0208V22.1875H36.9791V4.4375Z" fill="#FF9E80"/>
<path d="M30.3229 10.2063C30.3229 10.2063 30.9693 9.36018 31.9411 8.7626C32.4263 8.42979 32.9928 8.18276 33.5993 7.97568C34.2058 7.79079 34.8536 7.6976 35.5 7.69168C36.1464 7.69908 36.7943 7.7967 37.4008 7.9816C37.704 8.06147 37.9969 8.21087 38.2749 8.33512C38.553 8.4431 38.8163 8.61172 39.0589 8.76851C40.0292 9.36462 40.6771 10.2063 40.6771 10.2063V10.5021C40.6771 10.5021 40.0292 10.548 39.0589 10.582C38.0886 10.5997 36.7943 10.6249 35.5 10.65C34.2057 10.6249 32.9115 10.6012 31.9411 10.582C30.9693 10.5494 30.3229 10.5021 30.3229 10.5021V10.2063Z" fill="#FF9E80"/>
<path d="M32.6497 21.1521L35.5 25.4816L38.3504 21.1521L35.5 18.3017L32.6497 21.1521Z" fill="#FF9E80"/>
<path d="M33.1511 4.83096L35.5 1.26321L37.8489 4.83096L35.5 7.17988L33.1511 4.83096Z" fill="#FF9E80"/>
<path d="M35.5 11.8333C26.5141 11.8333 19.2292 13.8199 19.2292 16.2708C19.2292 17.8743 22.3561 19.2736 27.0259 20.0531L27.9474 19.1316C26.2153 18.8283 25.1459 18.4216 25.1459 17.9719C25.1459 17.0326 29.7816 16.2708 35.5 16.2708C41.2185 16.2708 45.8542 17.0326 45.8542 17.9719C45.8542 18.4216 44.7862 18.8283 43.0526 19.133L43.9742 20.0546C48.6439 19.2736 51.7709 17.8743 51.7709 16.2708C51.7709 13.8199 44.486 11.8333 35.5 11.8333Z" fill="#FF9E80"/>
<path d="M27.332 20.0856C27.9349 20.0856 28.4237 19.8525 28.4237 19.5649C28.4237 19.2774 27.9349 19.0443 27.332 19.0443C26.7292 19.0443 26.2404 19.2774 26.2404 19.5649C26.2404 19.8525 26.7292 20.0856 27.332 20.0856Z" fill="#FF9E80"/>
<path d="M43.6029 20.0856C44.2057 20.0856 44.6945 19.8525 44.6945 19.5649C44.6945 19.2774 44.2057 19.0443 43.6029 19.0443C43 19.0443 42.5112 19.2774 42.5112 19.5649C42.5112 19.8525 43 20.0856 43.6029 20.0856Z" fill="#FF9E80"/>
<path d="M43.0112 66.2667C51.4735 66.0906 57.6106 58.146 55.6433 49.9145L51.0387 30.6439L62.3439 38.0501L64.7653 49.9796C67.2903 62.412 54.2307 72.1892 43.0112 66.2667Z" fill="#CFD8DC"/>
<path d="M45.3113 32.518L49.2784 48.53C50.657 54.0946 47.1987 59.708 41.6089 60.9787L44.4623 62.3927C50.4041 65.3363 57.2852 60.6739 56.7556 54.0635L55.028 32.518H45.3113Z" fill="#E8EAF6"/>
<path d="M71 34.4247L70.6391 34.5844C66.8258 36.2795 62.3469 35.0208 59.9758 31.5876L54.3268 23.7377C54.0147 23.3043 53.5103 23.0499 52.9763 23.0573L47.8052 23.1312L51.2857 31.6527C54.4821 39.4819 64.752 41.2983 70.4394 35.0415L71 34.4247Z" fill="#E8EAF6"/>
<path d="M27.9888 66.2667C19.5265 66.0906 13.3894 58.146 15.3567 49.9145L19.9613 30.6439L8.65607 38.0501L6.23467 49.9796C3.70974 62.412 16.7693 72.1892 27.9888 66.2667Z" fill="#CFD8DC"/>
<path d="M0 34.4246L0.360917 34.5844C4.17421 36.2795 8.65312 35.0208 11.0242 31.5876L16.6732 23.7377C16.9853 23.3043 17.4897 23.0499 18.0236 23.0573L23.1948 23.1312L19.7158 31.6542C16.5193 39.4834 6.24948 41.2998 0.562083 35.0429L0 34.4246Z" fill="#E8EAF6"/>
<path d="M25.6887 32.518L21.7216 48.53C20.343 54.0946 23.8013 59.708 29.391 60.9786L26.5362 62.3912C20.5944 65.3348 13.7133 60.6724 14.2429 54.062L15.9706 32.5165L27.5214 26.4061L25.6887 32.518Z" fill="#E8EAF6"/>
</svg>
